<mxfile host="app.diagrams.net" modified="2023-11-15T18:53:57.470Z" agent="Mozilla/5.0 (Windows NT 10.0; Win64; x64) AppleWebKit/537.36 (KHTML, like Gecko) Chrome/119.0.0.0 Safari/537.36" etag="Z9iJKoCrOMfUPoLkGrim" version="22.1.0" type="device">
  <diagram name="Page-1" id="XH1UmRA6KK9N1FI1kqIY">
    <mxGraphModel dx="875" dy="471" grid="1" gridSize="10" guides="1" tooltips="1" connect="1" arrows="1" fold="1" page="1" pageScale="1" pageWidth="3300" pageHeight="4681" math="0" shadow="0">
      <root>
        <mxCell id="0" />
        <mxCell id="1" parent="0" />
        <mxCell id="5-RWkcCYth-cuZUuCBB2-5" style="edgeStyle=orthogonalEdgeStyle;rounded=0;orthogonalLoop=1;jettySize=auto;html=1;exitX=0.75;exitY=0;exitDx=0;exitDy=0;entryX=0.5;entryY=1;entryDx=0;entryDy=0;" parent="1" source="5-RWkcCYth-cuZUuCBB2-1" target="5-RWkcCYth-cuZUuCBB2-2" edge="1">
          <mxGeometry relative="1" as="geometry" />
        </mxCell>
        <mxCell id="5-RWkcCYth-cuZUuCBB2-7" style="edgeStyle=orthogonalEdgeStyle;rounded=0;orthogonalLoop=1;jettySize=auto;html=1;exitX=1;exitY=0;exitDx=0;exitDy=0;entryX=0.5;entryY=1;entryDx=0;entryDy=0;" parent="1" source="5-RWkcCYth-cuZUuCBB2-1" target="5-RWkcCYth-cuZUuCBB2-3" edge="1">
          <mxGeometry relative="1" as="geometry" />
        </mxCell>
        <mxCell id="5-RWkcCYth-cuZUuCBB2-1" value="Account" style="whiteSpace=wrap;html=1;align=center;" parent="1" vertex="1">
          <mxGeometry x="1630" y="1450" width="100" height="40" as="geometry" />
        </mxCell>
        <mxCell id="5-RWkcCYth-cuZUuCBB2-2" value="email" style="ellipse;whiteSpace=wrap;html=1;align=center;" parent="1" vertex="1">
          <mxGeometry x="1700" y="1350" width="100" height="40" as="geometry" />
        </mxCell>
        <mxCell id="5-RWkcCYth-cuZUuCBB2-3" value="password" style="ellipse;whiteSpace=wrap;html=1;align=center;" parent="1" vertex="1">
          <mxGeometry x="1810" y="1380" width="100" height="40" as="geometry" />
        </mxCell>
        <mxCell id="5-RWkcCYth-cuZUuCBB2-4" value="username" style="ellipse;whiteSpace=wrap;html=1;align=center;fontStyle=4;" parent="1" vertex="1">
          <mxGeometry x="1510" y="1360" width="100" height="40" as="geometry" />
        </mxCell>
        <mxCell id="5-RWkcCYth-cuZUuCBB2-6" style="edgeStyle=orthogonalEdgeStyle;rounded=0;orthogonalLoop=1;jettySize=auto;html=1;exitX=0;exitY=0;exitDx=0;exitDy=0;entryX=0.576;entryY=1.13;entryDx=0;entryDy=0;entryPerimeter=0;" parent="1" source="5-RWkcCYth-cuZUuCBB2-1" target="5-RWkcCYth-cuZUuCBB2-4" edge="1">
          <mxGeometry relative="1" as="geometry" />
        </mxCell>
        <mxCell id="5-RWkcCYth-cuZUuCBB2-9" value="is" style="shape=rhombus;double=1;perimeter=rhombusPerimeter;whiteSpace=wrap;html=1;align=center;" parent="1" vertex="1">
          <mxGeometry x="1370" y="1440" width="120" height="60" as="geometry" />
        </mxCell>
        <mxCell id="5-RWkcCYth-cuZUuCBB2-10" value="" style="endArrow=none;html=1;rounded=0;entryX=0;entryY=0.5;entryDx=0;entryDy=0;exitX=1;exitY=0.5;exitDx=0;exitDy=0;" parent="1" source="5-RWkcCYth-cuZUuCBB2-9" target="5-RWkcCYth-cuZUuCBB2-1" edge="1">
          <mxGeometry relative="1" as="geometry">
            <mxPoint x="1480" y="1510" as="sourcePoint" />
            <mxPoint x="1640" y="1510" as="targetPoint" />
          </mxGeometry>
        </mxCell>
        <mxCell id="5-RWkcCYth-cuZUuCBB2-11" value="1" style="resizable=0;html=1;whiteSpace=wrap;align=right;verticalAlign=bottom;" parent="5-RWkcCYth-cuZUuCBB2-10" connectable="0" vertex="1">
          <mxGeometry x="1" relative="1" as="geometry" />
        </mxCell>
        <mxCell id="5-RWkcCYth-cuZUuCBB2-18" style="edgeStyle=orthogonalEdgeStyle;rounded=0;orthogonalLoop=1;jettySize=auto;html=1;exitX=0;exitY=0;exitDx=0;exitDy=0;entryX=0.5;entryY=1;entryDx=0;entryDy=0;" parent="1" source="5-RWkcCYth-cuZUuCBB2-12" target="5-RWkcCYth-cuZUuCBB2-15" edge="1">
          <mxGeometry relative="1" as="geometry" />
        </mxCell>
        <mxCell id="5-RWkcCYth-cuZUuCBB2-19" style="edgeStyle=orthogonalEdgeStyle;rounded=0;orthogonalLoop=1;jettySize=auto;html=1;exitX=0.5;exitY=0;exitDx=0;exitDy=0;entryX=0.5;entryY=1;entryDx=0;entryDy=0;" parent="1" source="5-RWkcCYth-cuZUuCBB2-12" target="5-RWkcCYth-cuZUuCBB2-16" edge="1">
          <mxGeometry relative="1" as="geometry" />
        </mxCell>
        <mxCell id="5-RWkcCYth-cuZUuCBB2-20" style="edgeStyle=orthogonalEdgeStyle;rounded=0;orthogonalLoop=1;jettySize=auto;html=1;exitX=1;exitY=0;exitDx=0;exitDy=0;entryX=0.5;entryY=1;entryDx=0;entryDy=0;" parent="1" source="5-RWkcCYth-cuZUuCBB2-12" target="5-RWkcCYth-cuZUuCBB2-17" edge="1">
          <mxGeometry relative="1" as="geometry" />
        </mxCell>
        <mxCell id="5-RWkcCYth-cuZUuCBB2-12" value="Job Seekers" style="whiteSpace=wrap;html=1;align=center;" parent="1" vertex="1">
          <mxGeometry x="1110" y="1450" width="100" height="40" as="geometry" />
        </mxCell>
        <mxCell id="5-RWkcCYth-cuZUuCBB2-13" value="" style="endArrow=none;html=1;rounded=0;entryX=1;entryY=0.5;entryDx=0;entryDy=0;exitX=0;exitY=0.5;exitDx=0;exitDy=0;" parent="1" source="5-RWkcCYth-cuZUuCBB2-9" target="5-RWkcCYth-cuZUuCBB2-12" edge="1">
          <mxGeometry relative="1" as="geometry">
            <mxPoint x="1260" y="1470" as="sourcePoint" />
            <mxPoint x="1420" y="1470" as="targetPoint" />
          </mxGeometry>
        </mxCell>
        <mxCell id="5-RWkcCYth-cuZUuCBB2-14" value="N" style="resizable=0;html=1;whiteSpace=wrap;align=right;verticalAlign=bottom;" parent="5-RWkcCYth-cuZUuCBB2-13" connectable="0" vertex="1">
          <mxGeometry x="1" relative="1" as="geometry">
            <mxPoint x="20" as="offset" />
          </mxGeometry>
        </mxCell>
        <mxCell id="5-RWkcCYth-cuZUuCBB2-15" value="first_name" style="ellipse;whiteSpace=wrap;html=1;align=center;" parent="1" vertex="1">
          <mxGeometry x="980" y="1370" width="100" height="40" as="geometry" />
        </mxCell>
        <mxCell id="5-RWkcCYth-cuZUuCBB2-16" value="last_name" style="ellipse;whiteSpace=wrap;html=1;align=center;" parent="1" vertex="1">
          <mxGeometry x="1090" y="1370" width="100" height="40" as="geometry" />
        </mxCell>
        <mxCell id="5-RWkcCYth-cuZUuCBB2-17" value="phone_number" style="ellipse;whiteSpace=wrap;html=1;align=center;" parent="1" vertex="1">
          <mxGeometry x="1200" y="1370" width="100" height="40" as="geometry" />
        </mxCell>
        <mxCell id="5-RWkcCYth-cuZUuCBB2-21" value="is" style="shape=rhombus;double=1;perimeter=rhombusPerimeter;whiteSpace=wrap;html=1;align=center;" parent="1" vertex="1">
          <mxGeometry x="1620" y="1600" width="120" height="60" as="geometry" />
        </mxCell>
        <mxCell id="5-RWkcCYth-cuZUuCBB2-22" value="" style="endArrow=none;html=1;rounded=0;entryX=0.5;entryY=1;entryDx=0;entryDy=0;exitX=0.5;exitY=0;exitDx=0;exitDy=0;" parent="1" source="5-RWkcCYth-cuZUuCBB2-21" target="5-RWkcCYth-cuZUuCBB2-1" edge="1">
          <mxGeometry relative="1" as="geometry">
            <mxPoint x="1540" y="1550" as="sourcePoint" />
            <mxPoint x="1700" y="1550" as="targetPoint" />
          </mxGeometry>
        </mxCell>
        <mxCell id="5-RWkcCYth-cuZUuCBB2-23" value="1" style="resizable=0;html=1;whiteSpace=wrap;align=right;verticalAlign=bottom;" parent="5-RWkcCYth-cuZUuCBB2-22" connectable="0" vertex="1">
          <mxGeometry x="1" relative="1" as="geometry">
            <mxPoint y="20" as="offset" />
          </mxGeometry>
        </mxCell>
        <mxCell id="5-RWkcCYth-cuZUuCBB2-31" style="edgeStyle=orthogonalEdgeStyle;rounded=0;orthogonalLoop=1;jettySize=auto;html=1;exitX=1;exitY=1;exitDx=0;exitDy=0;entryX=0.5;entryY=0;entryDx=0;entryDy=0;" parent="1" source="5-RWkcCYth-cuZUuCBB2-24" target="5-RWkcCYth-cuZUuCBB2-29" edge="1">
          <mxGeometry relative="1" as="geometry" />
        </mxCell>
        <mxCell id="5-RWkcCYth-cuZUuCBB2-32" style="edgeStyle=orthogonalEdgeStyle;rounded=0;orthogonalLoop=1;jettySize=auto;html=1;exitX=0.5;exitY=1;exitDx=0;exitDy=0;" parent="1" source="5-RWkcCYth-cuZUuCBB2-24" target="5-RWkcCYth-cuZUuCBB2-28" edge="1">
          <mxGeometry relative="1" as="geometry" />
        </mxCell>
        <mxCell id="5-RWkcCYth-cuZUuCBB2-33" style="edgeStyle=orthogonalEdgeStyle;rounded=0;orthogonalLoop=1;jettySize=auto;html=1;exitX=0;exitY=1;exitDx=0;exitDy=0;entryX=0.5;entryY=0;entryDx=0;entryDy=0;" parent="1" source="5-RWkcCYth-cuZUuCBB2-24" target="5-RWkcCYth-cuZUuCBB2-27" edge="1">
          <mxGeometry relative="1" as="geometry" />
        </mxCell>
        <mxCell id="5-RWkcCYth-cuZUuCBB2-24" value="Company Branches" style="whiteSpace=wrap;html=1;align=center;" parent="1" vertex="1">
          <mxGeometry x="1630" y="1800" width="100" height="40" as="geometry" />
        </mxCell>
        <mxCell id="5-RWkcCYth-cuZUuCBB2-25" value="" style="endArrow=none;html=1;rounded=0;entryX=0.5;entryY=0;entryDx=0;entryDy=0;exitX=0.5;exitY=1;exitDx=0;exitDy=0;" parent="1" source="5-RWkcCYth-cuZUuCBB2-21" target="5-RWkcCYth-cuZUuCBB2-24" edge="1">
          <mxGeometry relative="1" as="geometry">
            <mxPoint x="1470" y="1710" as="sourcePoint" />
            <mxPoint x="1630" y="1710" as="targetPoint" />
          </mxGeometry>
        </mxCell>
        <mxCell id="5-RWkcCYth-cuZUuCBB2-26" value="N" style="resizable=0;html=1;whiteSpace=wrap;align=right;verticalAlign=bottom;" parent="5-RWkcCYth-cuZUuCBB2-25" connectable="0" vertex="1">
          <mxGeometry x="1" relative="1" as="geometry" />
        </mxCell>
        <mxCell id="5-RWkcCYth-cuZUuCBB2-27" value="name" style="ellipse;whiteSpace=wrap;html=1;align=center;" parent="1" vertex="1">
          <mxGeometry x="1490" y="1880" width="100" height="40" as="geometry" />
        </mxCell>
        <mxCell id="5-RWkcCYth-cuZUuCBB2-28" value="employee_count" style="ellipse;whiteSpace=wrap;html=1;align=center;" parent="1" vertex="1">
          <mxGeometry x="1610" y="1920" width="100" height="40" as="geometry" />
        </mxCell>
        <mxCell id="5-RWkcCYth-cuZUuCBB2-29" value="description" style="ellipse;whiteSpace=wrap;html=1;align=center;" parent="1" vertex="1">
          <mxGeometry x="1730" y="1930" width="100" height="40" as="geometry" />
        </mxCell>
        <mxCell id="5-RWkcCYth-cuZUuCBB2-38" style="edgeStyle=orthogonalEdgeStyle;rounded=0;orthogonalLoop=1;jettySize=auto;html=1;exitX=1;exitY=0;exitDx=0;exitDy=0;entryX=0.5;entryY=1;entryDx=0;entryDy=0;" parent="1" source="5-RWkcCYth-cuZUuCBB2-34" target="5-RWkcCYth-cuZUuCBB2-36" edge="1">
          <mxGeometry relative="1" as="geometry" />
        </mxCell>
        <mxCell id="5-RWkcCYth-cuZUuCBB2-39" style="edgeStyle=orthogonalEdgeStyle;rounded=0;orthogonalLoop=1;jettySize=auto;html=1;exitX=0.5;exitY=0;exitDx=0;exitDy=0;entryX=0.5;entryY=1;entryDx=0;entryDy=0;" parent="1" source="5-RWkcCYth-cuZUuCBB2-34" target="5-RWkcCYth-cuZUuCBB2-35" edge="1">
          <mxGeometry relative="1" as="geometry" />
        </mxCell>
        <mxCell id="5-RWkcCYth-cuZUuCBB2-40" style="edgeStyle=orthogonalEdgeStyle;rounded=0;orthogonalLoop=1;jettySize=auto;html=1;exitX=0;exitY=0;exitDx=0;exitDy=0;entryX=0.5;entryY=1;entryDx=0;entryDy=0;" parent="1" source="5-RWkcCYth-cuZUuCBB2-34" target="5-RWkcCYth-cuZUuCBB2-37" edge="1">
          <mxGeometry relative="1" as="geometry" />
        </mxCell>
        <mxCell id="5-RWkcCYth-cuZUuCBB2-34" value="Skills" style="whiteSpace=wrap;html=1;align=center;" parent="1" vertex="1">
          <mxGeometry x="630" y="1640" width="100" height="40" as="geometry" />
        </mxCell>
        <mxCell id="5-RWkcCYth-cuZUuCBB2-35" value="name" style="ellipse;whiteSpace=wrap;html=1;align=center;" parent="1" vertex="1">
          <mxGeometry x="580" y="1510" width="100" height="40" as="geometry" />
        </mxCell>
        <mxCell id="5-RWkcCYth-cuZUuCBB2-36" value="description" style="ellipse;whiteSpace=wrap;html=1;align=center;" parent="1" vertex="1">
          <mxGeometry x="680" y="1510" width="100" height="40" as="geometry" />
        </mxCell>
        <mxCell id="5-RWkcCYth-cuZUuCBB2-37" value="id" style="ellipse;whiteSpace=wrap;html=1;align=center;fontStyle=4;" parent="1" vertex="1">
          <mxGeometry x="480" y="1560" width="100" height="40" as="geometry" />
        </mxCell>
        <mxCell id="5-RWkcCYth-cuZUuCBB2-41" value="have" style="shape=rhombus;perimeter=rhombusPerimeter;whiteSpace=wrap;html=1;align=center;" parent="1" vertex="1">
          <mxGeometry x="860" y="1440" width="120" height="60" as="geometry" />
        </mxCell>
        <mxCell id="5-RWkcCYth-cuZUuCBB2-43" value="" style="endArrow=none;html=1;rounded=0;entryX=0;entryY=0.5;entryDx=0;entryDy=0;exitX=1;exitY=0.5;exitDx=0;exitDy=0;" parent="1" source="5-RWkcCYth-cuZUuCBB2-41" target="5-RWkcCYth-cuZUuCBB2-12" edge="1">
          <mxGeometry relative="1" as="geometry">
            <mxPoint x="810" y="1580" as="sourcePoint" />
            <mxPoint x="970" y="1580" as="targetPoint" />
          </mxGeometry>
        </mxCell>
        <mxCell id="5-RWkcCYth-cuZUuCBB2-44" value="N" style="resizable=0;html=1;whiteSpace=wrap;align=right;verticalAlign=bottom;" parent="5-RWkcCYth-cuZUuCBB2-43" connectable="0" vertex="1">
          <mxGeometry x="1" relative="1" as="geometry" />
        </mxCell>
        <mxCell id="5-RWkcCYth-cuZUuCBB2-45" value="" style="endArrow=none;html=1;rounded=0;exitX=0.5;exitY=1;exitDx=0;exitDy=0;entryX=1;entryY=0.5;entryDx=0;entryDy=0;" parent="1" source="5-RWkcCYth-cuZUuCBB2-41" target="5-RWkcCYth-cuZUuCBB2-34" edge="1">
          <mxGeometry relative="1" as="geometry">
            <mxPoint x="780" y="1580" as="sourcePoint" />
            <mxPoint x="850" y="1710" as="targetPoint" />
            <Array as="points">
              <mxPoint x="920" y="1660" />
            </Array>
          </mxGeometry>
        </mxCell>
        <mxCell id="5-RWkcCYth-cuZUuCBB2-46" value="M" style="resizable=0;html=1;whiteSpace=wrap;align=right;verticalAlign=bottom;" parent="5-RWkcCYth-cuZUuCBB2-45" connectable="0" vertex="1">
          <mxGeometry x="1" relative="1" as="geometry">
            <mxPoint x="20" as="offset" />
          </mxGeometry>
        </mxCell>
        <mxCell id="5-RWkcCYth-cuZUuCBB2-57" style="edgeStyle=orthogonalEdgeStyle;rounded=0;orthogonalLoop=1;jettySize=auto;html=1;exitX=1;exitY=1;exitDx=0;exitDy=0;entryX=0;entryY=0;entryDx=0;entryDy=0;" parent="1" source="5-RWkcCYth-cuZUuCBB2-47" target="5-RWkcCYth-cuZUuCBB2-56" edge="1">
          <mxGeometry relative="1" as="geometry" />
        </mxCell>
        <mxCell id="5-RWkcCYth-cuZUuCBB2-60" style="edgeStyle=orthogonalEdgeStyle;rounded=0;orthogonalLoop=1;jettySize=auto;html=1;exitX=0;exitY=1;exitDx=0;exitDy=0;entryX=1;entryY=0;entryDx=0;entryDy=0;" parent="1" source="5-RWkcCYth-cuZUuCBB2-47" target="5-RWkcCYth-cuZUuCBB2-53" edge="1">
          <mxGeometry relative="1" as="geometry" />
        </mxCell>
        <mxCell id="5-RWkcCYth-cuZUuCBB2-47" value="Jobs" style="whiteSpace=wrap;html=1;align=center;" parent="1" vertex="1">
          <mxGeometry x="1120" y="1800" width="100" height="40" as="geometry" />
        </mxCell>
        <mxCell id="5-RWkcCYth-cuZUuCBB2-48" value="require" style="shape=rhombus;perimeter=rhombusPerimeter;whiteSpace=wrap;html=1;align=center;" parent="1" vertex="1">
          <mxGeometry x="620" y="1790" width="120" height="60" as="geometry" />
        </mxCell>
        <mxCell id="5-RWkcCYth-cuZUuCBB2-49" value="" style="endArrow=none;html=1;rounded=0;entryX=0;entryY=0.5;entryDx=0;entryDy=0;exitX=1;exitY=0.5;exitDx=0;exitDy=0;" parent="1" source="5-RWkcCYth-cuZUuCBB2-48" target="5-RWkcCYth-cuZUuCBB2-47" edge="1">
          <mxGeometry relative="1" as="geometry">
            <mxPoint x="690" y="1720" as="sourcePoint" />
            <mxPoint x="850" y="1720" as="targetPoint" />
          </mxGeometry>
        </mxCell>
        <mxCell id="5-RWkcCYth-cuZUuCBB2-50" value="N" style="resizable=0;html=1;whiteSpace=wrap;align=right;verticalAlign=bottom;" parent="5-RWkcCYth-cuZUuCBB2-49" connectable="0" vertex="1">
          <mxGeometry x="1" relative="1" as="geometry" />
        </mxCell>
        <mxCell id="5-RWkcCYth-cuZUuCBB2-51" value="" style="endArrow=none;html=1;rounded=0;entryX=0.5;entryY=0;entryDx=0;entryDy=0;exitX=0.5;exitY=1;exitDx=0;exitDy=0;" parent="1" source="5-RWkcCYth-cuZUuCBB2-34" target="5-RWkcCYth-cuZUuCBB2-48" edge="1">
          <mxGeometry relative="1" as="geometry">
            <mxPoint x="690" y="1720" as="sourcePoint" />
            <mxPoint x="850" y="1720" as="targetPoint" />
          </mxGeometry>
        </mxCell>
        <mxCell id="5-RWkcCYth-cuZUuCBB2-52" value="M" style="resizable=0;html=1;whiteSpace=wrap;align=right;verticalAlign=bottom;" parent="5-RWkcCYth-cuZUuCBB2-51" connectable="0" vertex="1">
          <mxGeometry x="1" relative="1" as="geometry">
            <mxPoint y="-90" as="offset" />
          </mxGeometry>
        </mxCell>
        <mxCell id="5-RWkcCYth-cuZUuCBB2-53" value="id" style="ellipse;whiteSpace=wrap;html=1;align=center;fontStyle=4;" parent="1" vertex="1">
          <mxGeometry x="970" y="1850" width="100" height="40" as="geometry" />
        </mxCell>
        <mxCell id="5-RWkcCYth-cuZUuCBB2-54" value="title" style="ellipse;whiteSpace=wrap;html=1;align=center;" parent="1" vertex="1">
          <mxGeometry x="1070" y="1880" width="100" height="40" as="geometry" />
        </mxCell>
        <mxCell id="5-RWkcCYth-cuZUuCBB2-55" value="salary" style="ellipse;whiteSpace=wrap;html=1;align=center;" parent="1" vertex="1">
          <mxGeometry x="1170" y="1880" width="100" height="40" as="geometry" />
        </mxCell>
        <mxCell id="5-RWkcCYth-cuZUuCBB2-56" value="type" style="ellipse;whiteSpace=wrap;html=1;align=center;" parent="1" vertex="1">
          <mxGeometry x="1250" y="1840" width="100" height="40" as="geometry" />
        </mxCell>
        <mxCell id="5-RWkcCYth-cuZUuCBB2-58" style="edgeStyle=orthogonalEdgeStyle;rounded=0;orthogonalLoop=1;jettySize=auto;html=1;exitX=0.75;exitY=1;exitDx=0;exitDy=0;entryX=0.324;entryY=-0.021;entryDx=0;entryDy=0;entryPerimeter=0;" parent="1" source="5-RWkcCYth-cuZUuCBB2-47" target="5-RWkcCYth-cuZUuCBB2-55" edge="1">
          <mxGeometry relative="1" as="geometry" />
        </mxCell>
        <mxCell id="5-RWkcCYth-cuZUuCBB2-59" style="edgeStyle=orthogonalEdgeStyle;rounded=0;orthogonalLoop=1;jettySize=auto;html=1;exitX=0.25;exitY=1;exitDx=0;exitDy=0;entryX=0.613;entryY=0.011;entryDx=0;entryDy=0;entryPerimeter=0;" parent="1" source="5-RWkcCYth-cuZUuCBB2-47" target="5-RWkcCYth-cuZUuCBB2-54" edge="1">
          <mxGeometry relative="1" as="geometry" />
        </mxCell>
        <mxCell id="5-RWkcCYth-cuZUuCBB2-61" value="have" style="shape=rhombus;perimeter=rhombusPerimeter;whiteSpace=wrap;html=1;align=center;" parent="1" vertex="1">
          <mxGeometry x="1390" y="1790" width="120" height="60" as="geometry" />
        </mxCell>
        <mxCell id="5-RWkcCYth-cuZUuCBB2-62" value="" style="endArrow=none;html=1;rounded=0;entryX=1;entryY=0.5;entryDx=0;entryDy=0;exitX=0;exitY=0.5;exitDx=0;exitDy=0;" parent="1" source="5-RWkcCYth-cuZUuCBB2-61" target="5-RWkcCYth-cuZUuCBB2-47" edge="1">
          <mxGeometry relative="1" as="geometry">
            <mxPoint x="1390" y="1800" as="sourcePoint" />
            <mxPoint x="1550" y="1800" as="targetPoint" />
          </mxGeometry>
        </mxCell>
        <mxCell id="5-RWkcCYth-cuZUuCBB2-63" value="N" style="resizable=0;html=1;whiteSpace=wrap;align=right;verticalAlign=bottom;" parent="5-RWkcCYth-cuZUuCBB2-62" connectable="0" vertex="1">
          <mxGeometry x="1" relative="1" as="geometry">
            <mxPoint x="20" as="offset" />
          </mxGeometry>
        </mxCell>
        <mxCell id="5-RWkcCYth-cuZUuCBB2-64" value="" style="endArrow=none;html=1;rounded=0;entryX=0;entryY=0.5;entryDx=0;entryDy=0;exitX=1;exitY=0.5;exitDx=0;exitDy=0;" parent="1" source="5-RWkcCYth-cuZUuCBB2-61" target="5-RWkcCYth-cuZUuCBB2-24" edge="1">
          <mxGeometry relative="1" as="geometry">
            <mxPoint x="1390" y="1800" as="sourcePoint" />
            <mxPoint x="1550" y="1800" as="targetPoint" />
          </mxGeometry>
        </mxCell>
        <mxCell id="5-RWkcCYth-cuZUuCBB2-65" value="1" style="resizable=0;html=1;whiteSpace=wrap;align=right;verticalAlign=bottom;" parent="5-RWkcCYth-cuZUuCBB2-64" connectable="0" vertex="1">
          <mxGeometry x="1" relative="1" as="geometry" />
        </mxCell>
        <mxCell id="5-RWkcCYth-cuZUuCBB2-72" style="edgeStyle=orthogonalEdgeStyle;rounded=0;orthogonalLoop=1;jettySize=auto;html=1;exitX=1;exitY=1;exitDx=0;exitDy=0;entryX=0;entryY=0;entryDx=0;entryDy=0;" parent="1" source="5-RWkcCYth-cuZUuCBB2-66" target="5-RWkcCYth-cuZUuCBB2-69" edge="1">
          <mxGeometry relative="1" as="geometry" />
        </mxCell>
        <mxCell id="5-RWkcCYth-cuZUuCBB2-73" style="edgeStyle=orthogonalEdgeStyle;rounded=0;orthogonalLoop=1;jettySize=auto;html=1;exitX=0.75;exitY=1;exitDx=0;exitDy=0;" parent="1" source="5-RWkcCYth-cuZUuCBB2-66" target="5-RWkcCYth-cuZUuCBB2-68" edge="1">
          <mxGeometry relative="1" as="geometry" />
        </mxCell>
        <mxCell id="5-RWkcCYth-cuZUuCBB2-66" value="Company Reviews" style="whiteSpace=wrap;html=1;align=center;" parent="1" vertex="1">
          <mxGeometry x="2060" y="1800" width="100" height="40" as="geometry" />
        </mxCell>
        <mxCell id="5-RWkcCYth-cuZUuCBB2-67" value="id" style="ellipse;whiteSpace=wrap;html=1;align=center;fontStyle=4;" parent="1" vertex="1">
          <mxGeometry x="1960" y="1860" width="100" height="40" as="geometry" />
        </mxCell>
        <mxCell id="5-RWkcCYth-cuZUuCBB2-68" value="content" style="ellipse;whiteSpace=wrap;html=1;align=center;" parent="1" vertex="1">
          <mxGeometry x="2060" y="1890" width="100" height="40" as="geometry" />
        </mxCell>
        <mxCell id="5-RWkcCYth-cuZUuCBB2-69" value="rating" style="ellipse;whiteSpace=wrap;html=1;align=center;" parent="1" vertex="1">
          <mxGeometry x="2170" y="1870" width="100" height="40" as="geometry" />
        </mxCell>
        <mxCell id="5-RWkcCYth-cuZUuCBB2-70" value="date_sent" style="ellipse;whiteSpace=wrap;html=1;align=center;" parent="1" vertex="1">
          <mxGeometry x="2200" y="1810" width="100" height="40" as="geometry" />
        </mxCell>
        <mxCell id="5-RWkcCYth-cuZUuCBB2-71" style="edgeStyle=orthogonalEdgeStyle;rounded=0;orthogonalLoop=1;jettySize=auto;html=1;exitX=1;exitY=0.5;exitDx=0;exitDy=0;entryX=-0.024;entryY=0.657;entryDx=0;entryDy=0;entryPerimeter=0;" parent="1" source="5-RWkcCYth-cuZUuCBB2-66" target="5-RWkcCYth-cuZUuCBB2-70" edge="1">
          <mxGeometry relative="1" as="geometry" />
        </mxCell>
        <mxCell id="5-RWkcCYth-cuZUuCBB2-74" style="edgeStyle=orthogonalEdgeStyle;rounded=0;orthogonalLoop=1;jettySize=auto;html=1;exitX=0.25;exitY=1;exitDx=0;exitDy=0;entryX=0.961;entryY=0.223;entryDx=0;entryDy=0;entryPerimeter=0;" parent="1" source="5-RWkcCYth-cuZUuCBB2-66" target="5-RWkcCYth-cuZUuCBB2-67" edge="1">
          <mxGeometry relative="1" as="geometry" />
        </mxCell>
        <mxCell id="5-RWkcCYth-cuZUuCBB2-75" value="Relationship" style="shape=rhombus;perimeter=rhombusPerimeter;whiteSpace=wrap;html=1;align=center;" parent="1" vertex="1">
          <mxGeometry x="1840" y="1790" width="120" height="60" as="geometry" />
        </mxCell>
        <mxCell id="5-RWkcCYth-cuZUuCBB2-76" value="" style="endArrow=none;html=1;rounded=0;entryX=1;entryY=0.5;entryDx=0;entryDy=0;exitX=0;exitY=0.5;exitDx=0;exitDy=0;" parent="1" source="5-RWkcCYth-cuZUuCBB2-75" target="5-RWkcCYth-cuZUuCBB2-24" edge="1">
          <mxGeometry relative="1" as="geometry">
            <mxPoint x="1810" y="1800" as="sourcePoint" />
            <mxPoint x="1970" y="1800" as="targetPoint" />
          </mxGeometry>
        </mxCell>
        <mxCell id="5-RWkcCYth-cuZUuCBB2-77" value="1" style="resizable=0;html=1;whiteSpace=wrap;align=right;verticalAlign=bottom;" parent="5-RWkcCYth-cuZUuCBB2-76" connectable="0" vertex="1">
          <mxGeometry x="1" relative="1" as="geometry">
            <mxPoint x="10" as="offset" />
          </mxGeometry>
        </mxCell>
        <mxCell id="5-RWkcCYth-cuZUuCBB2-80" value="located" style="shape=rhombus;perimeter=rhombusPerimeter;whiteSpace=wrap;html=1;align=center;" parent="1" vertex="1">
          <mxGeometry x="1620" y="1290" width="120" height="60" as="geometry" />
        </mxCell>
        <mxCell id="5-RWkcCYth-cuZUuCBB2-91" style="edgeStyle=orthogonalEdgeStyle;rounded=0;orthogonalLoop=1;jettySize=auto;html=1;exitX=1;exitY=0;exitDx=0;exitDy=0;entryX=0;entryY=1;entryDx=0;entryDy=0;" parent="1" source="5-RWkcCYth-cuZUuCBB2-81" target="5-RWkcCYth-cuZUuCBB2-90" edge="1">
          <mxGeometry relative="1" as="geometry" />
        </mxCell>
        <mxCell id="5-RWkcCYth-cuZUuCBB2-92" style="edgeStyle=orthogonalEdgeStyle;rounded=0;orthogonalLoop=1;jettySize=auto;html=1;exitX=0.75;exitY=0;exitDx=0;exitDy=0;entryX=0.5;entryY=1;entryDx=0;entryDy=0;" parent="1" source="5-RWkcCYth-cuZUuCBB2-81" target="5-RWkcCYth-cuZUuCBB2-89" edge="1">
          <mxGeometry relative="1" as="geometry" />
        </mxCell>
        <mxCell id="5-RWkcCYth-cuZUuCBB2-93" style="edgeStyle=orthogonalEdgeStyle;rounded=0;orthogonalLoop=1;jettySize=auto;html=1;exitX=0.25;exitY=0;exitDx=0;exitDy=0;entryX=0.5;entryY=1;entryDx=0;entryDy=0;" parent="1" source="5-RWkcCYth-cuZUuCBB2-81" target="5-RWkcCYth-cuZUuCBB2-88" edge="1">
          <mxGeometry relative="1" as="geometry" />
        </mxCell>
        <mxCell id="5-RWkcCYth-cuZUuCBB2-94" style="edgeStyle=orthogonalEdgeStyle;rounded=0;orthogonalLoop=1;jettySize=auto;html=1;exitX=0;exitY=0;exitDx=0;exitDy=0;entryX=0.5;entryY=1;entryDx=0;entryDy=0;" parent="1" source="5-RWkcCYth-cuZUuCBB2-81" target="5-RWkcCYth-cuZUuCBB2-87" edge="1">
          <mxGeometry relative="1" as="geometry" />
        </mxCell>
        <mxCell id="5-RWkcCYth-cuZUuCBB2-81" value="locations" style="whiteSpace=wrap;html=1;align=center;" parent="1" vertex="1">
          <mxGeometry x="1630" y="1160" width="100" height="40" as="geometry" />
        </mxCell>
        <mxCell id="5-RWkcCYth-cuZUuCBB2-87" value="id" style="ellipse;whiteSpace=wrap;html=1;align=center;fontStyle=4;" parent="1" vertex="1">
          <mxGeometry x="1520" y="1100" width="100" height="40" as="geometry" />
        </mxCell>
        <mxCell id="5-RWkcCYth-cuZUuCBB2-88" value="postcode" style="ellipse;whiteSpace=wrap;html=1;align=center;" parent="1" vertex="1">
          <mxGeometry x="1610" y="1070" width="100" height="40" as="geometry" />
        </mxCell>
        <mxCell id="5-RWkcCYth-cuZUuCBB2-89" value="floor" style="ellipse;whiteSpace=wrap;html=1;align=center;" parent="1" vertex="1">
          <mxGeometry x="1730" y="1060" width="100" height="40" as="geometry" />
        </mxCell>
        <mxCell id="5-RWkcCYth-cuZUuCBB2-90" value="room" style="ellipse;whiteSpace=wrap;html=1;align=center;" parent="1" vertex="1">
          <mxGeometry x="1810" y="1120" width="100" height="40" as="geometry" />
        </mxCell>
        <mxCell id="5-RWkcCYth-cuZUuCBB2-100" style="edgeStyle=orthogonalEdgeStyle;rounded=0;orthogonalLoop=1;jettySize=auto;html=1;exitX=1;exitY=1;exitDx=0;exitDy=0;entryX=0.5;entryY=0;entryDx=0;entryDy=0;" parent="1" source="5-RWkcCYth-cuZUuCBB2-95" target="5-RWkcCYth-cuZUuCBB2-99" edge="1">
          <mxGeometry relative="1" as="geometry" />
        </mxCell>
        <mxCell id="5-RWkcCYth-cuZUuCBB2-101" style="edgeStyle=orthogonalEdgeStyle;rounded=0;orthogonalLoop=1;jettySize=auto;html=1;exitX=1;exitY=0.5;exitDx=0;exitDy=0;entryX=0;entryY=0.5;entryDx=0;entryDy=0;" parent="1" source="5-RWkcCYth-cuZUuCBB2-95" target="5-RWkcCYth-cuZUuCBB2-98" edge="1">
          <mxGeometry relative="1" as="geometry" />
        </mxCell>
        <mxCell id="5-RWkcCYth-cuZUuCBB2-102" style="edgeStyle=orthogonalEdgeStyle;rounded=0;orthogonalLoop=1;jettySize=auto;html=1;exitX=1;exitY=0;exitDx=0;exitDy=0;entryX=0;entryY=1;entryDx=0;entryDy=0;" parent="1" source="5-RWkcCYth-cuZUuCBB2-95" target="5-RWkcCYth-cuZUuCBB2-97" edge="1">
          <mxGeometry relative="1" as="geometry" />
        </mxCell>
        <mxCell id="5-RWkcCYth-cuZUuCBB2-103" style="edgeStyle=orthogonalEdgeStyle;rounded=0;orthogonalLoop=1;jettySize=auto;html=1;exitX=0.5;exitY=0;exitDx=0;exitDy=0;entryX=0.5;entryY=1;entryDx=0;entryDy=0;" parent="1" source="5-RWkcCYth-cuZUuCBB2-95" target="5-RWkcCYth-cuZUuCBB2-96" edge="1">
          <mxGeometry relative="1" as="geometry" />
        </mxCell>
        <mxCell id="5-RWkcCYth-cuZUuCBB2-95" value="Notifications" style="whiteSpace=wrap;html=1;align=center;" parent="1" vertex="1">
          <mxGeometry x="2100" y="1560" width="100" height="40" as="geometry" />
        </mxCell>
        <mxCell id="5-RWkcCYth-cuZUuCBB2-96" value="id" style="ellipse;whiteSpace=wrap;html=1;align=center;fontStyle=4;" parent="1" vertex="1">
          <mxGeometry x="2100" y="1480" width="100" height="40" as="geometry" />
        </mxCell>
        <mxCell id="5-RWkcCYth-cuZUuCBB2-97" value="content" style="ellipse;whiteSpace=wrap;html=1;align=center;" parent="1" vertex="1">
          <mxGeometry x="2200" y="1510" width="100" height="40" as="geometry" />
        </mxCell>
        <mxCell id="5-RWkcCYth-cuZUuCBB2-98" value="date_sent" style="ellipse;whiteSpace=wrap;html=1;align=center;" parent="1" vertex="1">
          <mxGeometry x="2240" y="1560" width="100" height="40" as="geometry" />
        </mxCell>
        <mxCell id="5-RWkcCYth-cuZUuCBB2-99" value="status" style="ellipse;whiteSpace=wrap;html=1;align=center;" parent="1" vertex="1">
          <mxGeometry x="2170" y="1620" width="100" height="40" as="geometry" />
        </mxCell>
        <mxCell id="5-RWkcCYth-cuZUuCBB2-104" value="has" style="shape=rhombus;perimeter=rhombusPerimeter;whiteSpace=wrap;html=1;align=center;" parent="1" vertex="1">
          <mxGeometry x="1820" y="1550" width="120" height="60" as="geometry" />
        </mxCell>
        <mxCell id="5-RWkcCYth-cuZUuCBB2-107" value="" style="endArrow=none;html=1;rounded=0;entryX=0.75;entryY=1;entryDx=0;entryDy=0;exitX=0;exitY=0.5;exitDx=0;exitDy=0;" parent="1" source="5-RWkcCYth-cuZUuCBB2-104" target="5-RWkcCYth-cuZUuCBB2-1" edge="1">
          <mxGeometry relative="1" as="geometry">
            <mxPoint x="1800" y="1600" as="sourcePoint" />
            <mxPoint x="1960" y="1600" as="targetPoint" />
            <Array as="points">
              <mxPoint x="1705" y="1580" />
            </Array>
          </mxGeometry>
        </mxCell>
        <mxCell id="5-RWkcCYth-cuZUuCBB2-108" value="1" style="resizable=0;html=1;whiteSpace=wrap;align=right;verticalAlign=bottom;" parent="5-RWkcCYth-cuZUuCBB2-107" connectable="0" vertex="1">
          <mxGeometry x="1" relative="1" as="geometry">
            <mxPoint x="15" y="20" as="offset" />
          </mxGeometry>
        </mxCell>
        <mxCell id="5-RWkcCYth-cuZUuCBB2-114" style="edgeStyle=orthogonalEdgeStyle;rounded=0;orthogonalLoop=1;jettySize=auto;html=1;exitX=0.5;exitY=0;exitDx=0;exitDy=0;entryX=0;entryY=1;entryDx=0;entryDy=0;" parent="1" source="5-RWkcCYth-cuZUuCBB2-109" target="5-RWkcCYth-cuZUuCBB2-110" edge="1">
          <mxGeometry relative="1" as="geometry" />
        </mxCell>
        <mxCell id="5-RWkcCYth-cuZUuCBB2-116" style="edgeStyle=orthogonalEdgeStyle;rounded=0;orthogonalLoop=1;jettySize=auto;html=1;exitX=1;exitY=0.5;exitDx=0;exitDy=0;entryX=0;entryY=0.5;entryDx=0;entryDy=0;" parent="1" source="5-RWkcCYth-cuZUuCBB2-109" target="5-RWkcCYth-cuZUuCBB2-112" edge="1">
          <mxGeometry relative="1" as="geometry" />
        </mxCell>
        <mxCell id="5-RWkcCYth-cuZUuCBB2-117" style="edgeStyle=orthogonalEdgeStyle;rounded=0;orthogonalLoop=1;jettySize=auto;html=1;exitX=0.75;exitY=1;exitDx=0;exitDy=0;entryX=0;entryY=0.5;entryDx=0;entryDy=0;" parent="1" source="5-RWkcCYth-cuZUuCBB2-109" target="5-RWkcCYth-cuZUuCBB2-113" edge="1">
          <mxGeometry relative="1" as="geometry" />
        </mxCell>
        <mxCell id="5-RWkcCYth-cuZUuCBB2-109" value="Applications" style="whiteSpace=wrap;html=1;align=center;" parent="1" vertex="1">
          <mxGeometry x="1280" y="1620" width="100" height="40" as="geometry" />
        </mxCell>
        <mxCell id="5-RWkcCYth-cuZUuCBB2-110" value="id" style="ellipse;whiteSpace=wrap;html=1;align=center;fontStyle=4;" parent="1" vertex="1">
          <mxGeometry x="1350" y="1530" width="100" height="40" as="geometry" />
        </mxCell>
        <mxCell id="5-RWkcCYth-cuZUuCBB2-111" value="content" style="ellipse;whiteSpace=wrap;html=1;align=center;" parent="1" vertex="1">
          <mxGeometry x="1430" y="1580" width="100" height="40" as="geometry" />
        </mxCell>
        <mxCell id="5-RWkcCYth-cuZUuCBB2-112" value="date_applied" style="ellipse;whiteSpace=wrap;html=1;align=center;" parent="1" vertex="1">
          <mxGeometry x="1430" y="1640" width="100" height="40" as="geometry" />
        </mxCell>
        <mxCell id="5-RWkcCYth-cuZUuCBB2-113" value="status" style="ellipse;whiteSpace=wrap;html=1;align=center;" parent="1" vertex="1">
          <mxGeometry x="1410" y="1700" width="100" height="40" as="geometry" />
        </mxCell>
        <mxCell id="5-RWkcCYth-cuZUuCBB2-115" style="edgeStyle=orthogonalEdgeStyle;rounded=0;orthogonalLoop=1;jettySize=auto;html=1;exitX=0.75;exitY=0;exitDx=0;exitDy=0;entryX=-0.014;entryY=0.647;entryDx=0;entryDy=0;entryPerimeter=0;" parent="1" source="5-RWkcCYth-cuZUuCBB2-109" target="5-RWkcCYth-cuZUuCBB2-111" edge="1">
          <mxGeometry relative="1" as="geometry" />
        </mxCell>
        <mxCell id="5-RWkcCYth-cuZUuCBB2-118" value="fills_out" style="shape=rhombus;perimeter=rhombusPerimeter;whiteSpace=wrap;html=1;align=center;" parent="1" vertex="1">
          <mxGeometry x="1100" y="1540" width="120" height="60" as="geometry" />
        </mxCell>
        <mxCell id="5-RWkcCYth-cuZUuCBB2-123" value="" style="endArrow=none;html=1;rounded=0;entryX=0.5;entryY=0;entryDx=0;entryDy=0;exitX=0.5;exitY=1;exitDx=0;exitDy=0;" parent="1" source="5-RWkcCYth-cuZUuCBB2-12" target="5-RWkcCYth-cuZUuCBB2-118" edge="1">
          <mxGeometry relative="1" as="geometry">
            <mxPoint x="1060" y="1630" as="sourcePoint" />
            <mxPoint x="1220" y="1630" as="targetPoint" />
          </mxGeometry>
        </mxCell>
        <mxCell id="5-RWkcCYth-cuZUuCBB2-124" value="1" style="resizable=0;html=1;whiteSpace=wrap;align=right;verticalAlign=bottom;" parent="5-RWkcCYth-cuZUuCBB2-123" connectable="0" vertex="1">
          <mxGeometry x="1" relative="1" as="geometry" />
        </mxCell>
        <mxCell id="5-RWkcCYth-cuZUuCBB2-125" value="sent_to" style="shape=rhombus;perimeter=rhombusPerimeter;whiteSpace=wrap;html=1;align=center;" parent="1" vertex="1">
          <mxGeometry x="1110" y="1700" width="120" height="60" as="geometry" />
        </mxCell>
        <mxCell id="5-RWkcCYth-cuZUuCBB2-126" value="" style="endArrow=none;html=1;rounded=0;entryX=0.5;entryY=0;entryDx=0;entryDy=0;exitX=0.5;exitY=1;exitDx=0;exitDy=0;" parent="1" source="5-RWkcCYth-cuZUuCBB2-125" target="5-RWkcCYth-cuZUuCBB2-47" edge="1">
          <mxGeometry relative="1" as="geometry">
            <mxPoint x="1060" y="1630" as="sourcePoint" />
            <mxPoint x="1220" y="1630" as="targetPoint" />
          </mxGeometry>
        </mxCell>
        <mxCell id="5-RWkcCYth-cuZUuCBB2-127" value="1" style="resizable=0;html=1;whiteSpace=wrap;align=right;verticalAlign=bottom;" parent="5-RWkcCYth-cuZUuCBB2-126" connectable="0" vertex="1">
          <mxGeometry x="1" relative="1" as="geometry" />
        </mxCell>
        <mxCell id="5-RWkcCYth-cuZUuCBB2-135" style="edgeStyle=orthogonalEdgeStyle;rounded=0;orthogonalLoop=1;jettySize=auto;html=1;exitX=1;exitY=0.5;exitDx=0;exitDy=0;entryX=0.5;entryY=1;entryDx=0;entryDy=0;" parent="1" source="5-RWkcCYth-cuZUuCBB2-130" target="5-RWkcCYth-cuZUuCBB2-134" edge="1">
          <mxGeometry relative="1" as="geometry" />
        </mxCell>
        <mxCell id="5-RWkcCYth-cuZUuCBB2-136" style="edgeStyle=orthogonalEdgeStyle;rounded=0;orthogonalLoop=1;jettySize=auto;html=1;exitX=0.5;exitY=0;exitDx=0;exitDy=0;entryX=0.5;entryY=1;entryDx=0;entryDy=0;" parent="1" source="5-RWkcCYth-cuZUuCBB2-130" target="5-RWkcCYth-cuZUuCBB2-133" edge="1">
          <mxGeometry relative="1" as="geometry" />
        </mxCell>
        <mxCell id="5-RWkcCYth-cuZUuCBB2-137" style="edgeStyle=orthogonalEdgeStyle;rounded=0;orthogonalLoop=1;jettySize=auto;html=1;exitX=0;exitY=0.75;exitDx=0;exitDy=0;entryX=0.5;entryY=1;entryDx=0;entryDy=0;" parent="1" source="5-RWkcCYth-cuZUuCBB2-130" target="5-RWkcCYth-cuZUuCBB2-132" edge="1">
          <mxGeometry relative="1" as="geometry" />
        </mxCell>
        <mxCell id="5-RWkcCYth-cuZUuCBB2-130" value="Plans" style="whiteSpace=wrap;html=1;align=center;" parent="1" vertex="1">
          <mxGeometry x="1950" y="1210" width="100" height="40" as="geometry" />
        </mxCell>
        <mxCell id="5-RWkcCYth-cuZUuCBB2-132" value="id" style="ellipse;whiteSpace=wrap;html=1;align=center;fontStyle=4;" parent="1" vertex="1">
          <mxGeometry x="1850" y="1160" width="100" height="40" as="geometry" />
        </mxCell>
        <mxCell id="5-RWkcCYth-cuZUuCBB2-133" value="price" style="ellipse;whiteSpace=wrap;html=1;align=center;" parent="1" vertex="1">
          <mxGeometry x="1960" y="1140" width="100" height="40" as="geometry" />
        </mxCell>
        <mxCell id="5-RWkcCYth-cuZUuCBB2-134" value="name" style="ellipse;whiteSpace=wrap;html=1;align=center;" parent="1" vertex="1">
          <mxGeometry x="2070" y="1170" width="100" height="40" as="geometry" />
        </mxCell>
        <mxCell id="5-RWkcCYth-cuZUuCBB2-138" value="subscribed to" style="shape=rhombus;perimeter=rhombusPerimeter;whiteSpace=wrap;html=1;align=center;" parent="1" vertex="1">
          <mxGeometry x="1940" y="1320" width="120" height="60" as="geometry" />
        </mxCell>
        <mxCell id="P9Sh91OjDnLaHBOAm3yZ-3" value="" style="endArrow=none;html=1;rounded=0;entryX=0.5;entryY=1;entryDx=0;entryDy=0;exitX=0.5;exitY=0;exitDx=0;exitDy=0;" parent="1" source="5-RWkcCYth-cuZUuCBB2-138" target="5-RWkcCYth-cuZUuCBB2-130" edge="1">
          <mxGeometry relative="1" as="geometry">
            <mxPoint x="1780" y="1390" as="sourcePoint" />
            <mxPoint x="1940" y="1390" as="targetPoint" />
          </mxGeometry>
        </mxCell>
        <mxCell id="P9Sh91OjDnLaHBOAm3yZ-4" value="1" style="resizable=0;html=1;whiteSpace=wrap;align=right;verticalAlign=bottom;" parent="P9Sh91OjDnLaHBOAm3yZ-3" connectable="0" vertex="1">
          <mxGeometry x="1" relative="1" as="geometry">
            <mxPoint y="20" as="offset" />
          </mxGeometry>
        </mxCell>
        <mxCell id="MNJgt3n8I4owFuLmfSrO-5" style="edgeStyle=orthogonalEdgeStyle;rounded=0;orthogonalLoop=1;jettySize=auto;html=1;exitX=1;exitY=0;exitDx=0;exitDy=0;entryX=0;entryY=0.5;entryDx=0;entryDy=0;" parent="1" source="MNJgt3n8I4owFuLmfSrO-1" target="MNJgt3n8I4owFuLmfSrO-2" edge="1">
          <mxGeometry relative="1" as="geometry" />
        </mxCell>
        <mxCell id="MNJgt3n8I4owFuLmfSrO-6" style="edgeStyle=orthogonalEdgeStyle;rounded=0;orthogonalLoop=1;jettySize=auto;html=1;exitX=1;exitY=0.5;exitDx=0;exitDy=0;entryX=0;entryY=0.5;entryDx=0;entryDy=0;" parent="1" source="MNJgt3n8I4owFuLmfSrO-1" target="MNJgt3n8I4owFuLmfSrO-3" edge="1">
          <mxGeometry relative="1" as="geometry" />
        </mxCell>
        <mxCell id="MNJgt3n8I4owFuLmfSrO-7" style="edgeStyle=orthogonalEdgeStyle;rounded=0;orthogonalLoop=1;jettySize=auto;html=1;exitX=1;exitY=1;exitDx=0;exitDy=0;entryX=0.5;entryY=0;entryDx=0;entryDy=0;" parent="1" source="MNJgt3n8I4owFuLmfSrO-1" target="MNJgt3n8I4owFuLmfSrO-4" edge="1">
          <mxGeometry relative="1" as="geometry" />
        </mxCell>
        <mxCell id="MNJgt3n8I4owFuLmfSrO-1" value="Industries" style="whiteSpace=wrap;html=1;align=center;" parent="1" vertex="1">
          <mxGeometry x="1890" y="1680" width="100" height="40" as="geometry" />
        </mxCell>
        <mxCell id="MNJgt3n8I4owFuLmfSrO-2" value="id" style="ellipse;whiteSpace=wrap;html=1;align=center;fontStyle=4;" parent="1" vertex="1">
          <mxGeometry x="1990" y="1630" width="100" height="40" as="geometry" />
        </mxCell>
        <mxCell id="MNJgt3n8I4owFuLmfSrO-3" value="title" style="ellipse;whiteSpace=wrap;html=1;align=center;" parent="1" vertex="1">
          <mxGeometry x="2020" y="1680" width="100" height="40" as="geometry" />
        </mxCell>
        <mxCell id="MNJgt3n8I4owFuLmfSrO-4" value="description" style="ellipse;whiteSpace=wrap;html=1;align=center;" parent="1" vertex="1">
          <mxGeometry x="1980" y="1750" width="100" height="40" as="geometry" />
        </mxCell>
        <mxCell id="FqQJHs4Te-p2eGgyBcML-1" value="" style="endArrow=none;html=1;rounded=0;dashed=1;dashPattern=1 2;entryX=0.5;entryY=1;entryDx=0;entryDy=0;exitX=0.5;exitY=0;exitDx=0;exitDy=0;" edge="1" parent="1" source="5-RWkcCYth-cuZUuCBB2-80" target="5-RWkcCYth-cuZUuCBB2-81">
          <mxGeometry relative="1" as="geometry">
            <mxPoint x="1660" y="1330" as="sourcePoint" />
            <mxPoint x="1820" y="1330" as="targetPoint" />
          </mxGeometry>
        </mxCell>
        <mxCell id="FqQJHs4Te-p2eGgyBcML-2" value="1" style="resizable=0;html=1;whiteSpace=wrap;align=right;verticalAlign=bottom;" connectable="0" vertex="1" parent="FqQJHs4Te-p2eGgyBcML-1">
          <mxGeometry x="1" relative="1" as="geometry">
            <mxPoint y="20" as="offset" />
          </mxGeometry>
        </mxCell>
        <mxCell id="FqQJHs4Te-p2eGgyBcML-3" value="" style="endArrow=none;html=1;rounded=0;dashed=1;dashPattern=1 2;entryX=0.5;entryY=0;entryDx=0;entryDy=0;exitX=0.5;exitY=1;exitDx=0;exitDy=0;" edge="1" parent="1" source="5-RWkcCYth-cuZUuCBB2-80" target="5-RWkcCYth-cuZUuCBB2-1">
          <mxGeometry relative="1" as="geometry">
            <mxPoint x="1660" y="1330" as="sourcePoint" />
            <mxPoint x="1820" y="1330" as="targetPoint" />
          </mxGeometry>
        </mxCell>
        <mxCell id="FqQJHs4Te-p2eGgyBcML-4" value="1" style="resizable=0;html=1;whiteSpace=wrap;align=right;verticalAlign=bottom;" connectable="0" vertex="1" parent="FqQJHs4Te-p2eGgyBcML-3">
          <mxGeometry x="1" relative="1" as="geometry" />
        </mxCell>
        <mxCell id="FqQJHs4Te-p2eGgyBcML-5" value="" style="endArrow=none;html=1;rounded=0;dashed=1;dashPattern=1 2;entryX=0.5;entryY=1;entryDx=0;entryDy=0;exitX=1;exitY=0.5;exitDx=0;exitDy=0;" edge="1" parent="1" source="5-RWkcCYth-cuZUuCBB2-1" target="5-RWkcCYth-cuZUuCBB2-138">
          <mxGeometry relative="1" as="geometry">
            <mxPoint x="1660" y="1330" as="sourcePoint" />
            <mxPoint x="1820" y="1330" as="targetPoint" />
            <Array as="points">
              <mxPoint x="2000" y="1470" />
            </Array>
          </mxGeometry>
        </mxCell>
        <mxCell id="FqQJHs4Te-p2eGgyBcML-6" value="N" style="resizable=0;html=1;whiteSpace=wrap;align=right;verticalAlign=bottom;" connectable="0" vertex="1" parent="FqQJHs4Te-p2eGgyBcML-5">
          <mxGeometry x="1" relative="1" as="geometry">
            <mxPoint x="-250" y="90" as="offset" />
          </mxGeometry>
        </mxCell>
        <mxCell id="FqQJHs4Te-p2eGgyBcML-7" value="" style="endArrow=none;html=1;rounded=0;dashed=1;dashPattern=1 2;entryX=0;entryY=0.5;entryDx=0;entryDy=0;exitX=0.75;exitY=0;exitDx=0;exitDy=0;" edge="1" parent="1" source="5-RWkcCYth-cuZUuCBB2-24" target="MNJgt3n8I4owFuLmfSrO-1">
          <mxGeometry relative="1" as="geometry">
            <mxPoint x="1830" y="1770" as="sourcePoint" />
            <mxPoint x="1990" y="1770" as="targetPoint" />
            <Array as="points">
              <mxPoint x="1705" y="1700" />
            </Array>
          </mxGeometry>
        </mxCell>
        <mxCell id="FqQJHs4Te-p2eGgyBcML-8" value="M" style="resizable=0;html=1;whiteSpace=wrap;align=left;verticalAlign=bottom;" connectable="0" vertex="1" parent="FqQJHs4Te-p2eGgyBcML-7">
          <mxGeometry x="-1" relative="1" as="geometry" />
        </mxCell>
        <mxCell id="FqQJHs4Te-p2eGgyBcML-9" value="N" style="resizable=0;html=1;whiteSpace=wrap;align=right;verticalAlign=bottom;" connectable="0" vertex="1" parent="FqQJHs4Te-p2eGgyBcML-7">
          <mxGeometry x="1" relative="1" as="geometry" />
        </mxCell>
        <mxCell id="FqQJHs4Te-p2eGgyBcML-14" value="" style="endArrow=none;html=1;rounded=0;dashed=1;dashPattern=1 2;entryX=0;entryY=0.5;entryDx=0;entryDy=0;exitX=1;exitY=0.5;exitDx=0;exitDy=0;" edge="1" parent="1" source="5-RWkcCYth-cuZUuCBB2-75" target="5-RWkcCYth-cuZUuCBB2-66">
          <mxGeometry relative="1" as="geometry">
            <mxPoint x="1830" y="1770" as="sourcePoint" />
            <mxPoint x="1990" y="1770" as="targetPoint" />
          </mxGeometry>
        </mxCell>
        <mxCell id="FqQJHs4Te-p2eGgyBcML-15" value="N" style="resizable=0;html=1;whiteSpace=wrap;align=right;verticalAlign=bottom;" connectable="0" vertex="1" parent="FqQJHs4Te-p2eGgyBcML-14">
          <mxGeometry x="1" relative="1" as="geometry" />
        </mxCell>
        <mxCell id="FqQJHs4Te-p2eGgyBcML-16" value="" style="endArrow=none;html=1;rounded=0;dashed=1;dashPattern=1 2;entryX=0;entryY=0.25;entryDx=0;entryDy=0;exitX=0.5;exitY=1;exitDx=0;exitDy=0;" edge="1" parent="1" source="5-RWkcCYth-cuZUuCBB2-118" target="5-RWkcCYth-cuZUuCBB2-109">
          <mxGeometry relative="1" as="geometry">
            <mxPoint x="1190" y="1690" as="sourcePoint" />
            <mxPoint x="1350" y="1690" as="targetPoint" />
            <Array as="points">
              <mxPoint x="1160" y="1630" />
            </Array>
          </mxGeometry>
        </mxCell>
        <mxCell id="FqQJHs4Te-p2eGgyBcML-17" value="N" style="resizable=0;html=1;whiteSpace=wrap;align=right;verticalAlign=bottom;" connectable="0" vertex="1" parent="FqQJHs4Te-p2eGgyBcML-16">
          <mxGeometry x="1" relative="1" as="geometry" />
        </mxCell>
        <mxCell id="FqQJHs4Te-p2eGgyBcML-18" value="" style="endArrow=none;html=1;rounded=0;dashed=1;dashPattern=1 2;entryX=0;entryY=0.75;entryDx=0;entryDy=0;exitX=0.5;exitY=0;exitDx=0;exitDy=0;" edge="1" parent="1" source="5-RWkcCYth-cuZUuCBB2-125" target="5-RWkcCYth-cuZUuCBB2-109">
          <mxGeometry relative="1" as="geometry">
            <mxPoint x="1190" y="1690" as="sourcePoint" />
            <mxPoint x="1350" y="1690" as="targetPoint" />
            <Array as="points">
              <mxPoint x="1170" y="1650" />
            </Array>
          </mxGeometry>
        </mxCell>
        <mxCell id="FqQJHs4Te-p2eGgyBcML-19" value="N" style="resizable=0;html=1;whiteSpace=wrap;align=right;verticalAlign=bottom;" connectable="0" vertex="1" parent="FqQJHs4Te-p2eGgyBcML-18">
          <mxGeometry x="1" relative="1" as="geometry" />
        </mxCell>
        <mxCell id="FqQJHs4Te-p2eGgyBcML-20" value="" style="endArrow=none;html=1;rounded=0;dashed=1;dashPattern=1 2;entryX=0;entryY=0.5;entryDx=0;entryDy=0;exitX=1;exitY=0.5;exitDx=0;exitDy=0;" edge="1" parent="1" source="5-RWkcCYth-cuZUuCBB2-104" target="5-RWkcCYth-cuZUuCBB2-95">
          <mxGeometry relative="1" as="geometry">
            <mxPoint x="1890" y="1520" as="sourcePoint" />
            <mxPoint x="2050" y="1520" as="targetPoint" />
          </mxGeometry>
        </mxCell>
        <mxCell id="FqQJHs4Te-p2eGgyBcML-21" value="N" style="resizable=0;html=1;whiteSpace=wrap;align=right;verticalAlign=bottom;" connectable="0" vertex="1" parent="FqQJHs4Te-p2eGgyBcML-20">
          <mxGeometry x="1" relative="1" as="geometry" />
        </mxCell>
      </root>
    </mxGraphModel>
  </diagram>
</mxfile>
